<mxfile host="app.diagrams.net" modified="2024-06-20T01:26:36.062Z" agent="Mozilla/5.0 (Windows NT 10.0; Win64; x64) AppleWebKit/537.36 (KHTML, like Gecko) Chrome/126.0.0.0 Safari/537.36" etag="9sG88gmWAmWJmIQajU7h" version="24.4.10" type="github">
  <diagram id="C5RBs43oDa-KdzZeNtuy" name="Page-1">
    <mxGraphModel dx="1194" dy="618" grid="1" gridSize="10" guides="1" tooltips="1" connect="1" arrows="1" fold="1" page="1" pageScale="1" pageWidth="827" pageHeight="1169" math="0" shadow="0">
      <root>
        <mxCell id="WIyWlLk6GJQsqaUBKTNV-0" />
        <mxCell id="WIyWlLk6GJQsqaUBKTNV-1" parent="WIyWlLk6GJQsqaUBKTNV-0" />
        <mxCell id="WIyWlLk6GJQsqaUBKTNV-5" value="" style="edgeStyle=orthogonalEdgeStyle;rounded=0;html=1;jettySize=auto;orthogonalLoop=1;fontSize=11;endArrow=block;endFill=0;endSize=8;strokeWidth=1;shadow=0;labelBackgroundColor=none;" parent="WIyWlLk6GJQsqaUBKTNV-1" edge="1">
          <mxGeometry x="-0.208" y="20" relative="1" as="geometry">
            <mxPoint as="offset" />
            <mxPoint x="150" y="209.5" as="sourcePoint" />
            <mxPoint x="200" y="209.5" as="targetPoint" />
          </mxGeometry>
        </mxCell>
        <mxCell id="WIyWlLk6GJQsqaUBKTNV-9" value="" style="edgeStyle=orthogonalEdgeStyle;rounded=0;html=1;jettySize=auto;orthogonalLoop=1;fontSize=11;endArrow=block;endFill=0;endSize=8;strokeWidth=1;shadow=0;labelBackgroundColor=none;" parent="WIyWlLk6GJQsqaUBKTNV-1" edge="1">
          <mxGeometry x="-0.208" y="20" relative="1" as="geometry">
            <mxPoint as="offset" />
            <mxPoint x="150" y="460" as="sourcePoint" />
            <mxPoint x="200" y="460" as="targetPoint" />
          </mxGeometry>
        </mxCell>
        <mxCell id="j6U74FCSiYi01_plaiyg-13" value="amount&amp;gt;0?" style="strokeWidth=2;html=1;shape=mxgraph.flowchart.decision;whiteSpace=wrap;" vertex="1" parent="WIyWlLk6GJQsqaUBKTNV-1">
          <mxGeometry x="470" y="160" width="120" height="100" as="geometry" />
        </mxCell>
        <mxCell id="j6U74FCSiYi01_plaiyg-14" value="" style="edgeStyle=orthogonalEdgeStyle;rounded=0;html=1;jettySize=auto;orthogonalLoop=1;fontSize=11;endArrow=block;endFill=0;endSize=8;strokeWidth=1;shadow=0;labelBackgroundColor=none;" edge="1" parent="WIyWlLk6GJQsqaUBKTNV-1">
          <mxGeometry y="10" relative="1" as="geometry">
            <mxPoint as="offset" />
            <mxPoint x="420" y="209.5" as="sourcePoint" />
            <mxPoint x="470" y="209.5" as="targetPoint" />
          </mxGeometry>
        </mxCell>
        <mxCell id="j6U74FCSiYi01_plaiyg-15" value="True" style="edgeStyle=orthogonalEdgeStyle;rounded=0;html=1;jettySize=auto;orthogonalLoop=1;fontSize=11;endArrow=block;endFill=0;endSize=8;strokeWidth=1;shadow=0;labelBackgroundColor=none;" edge="1" parent="WIyWlLk6GJQsqaUBKTNV-1">
          <mxGeometry x="-0.208" y="20" relative="1" as="geometry">
            <mxPoint as="offset" />
            <mxPoint x="590" y="209.5" as="sourcePoint" />
            <mxPoint x="640" y="209.5" as="targetPoint" />
          </mxGeometry>
        </mxCell>
        <mxCell id="j6U74FCSiYi01_plaiyg-16" value="False" style="rounded=0;html=1;jettySize=auto;orthogonalLoop=1;fontSize=11;endArrow=block;endFill=0;endSize=8;strokeWidth=1;shadow=0;labelBackgroundColor=none;edgeStyle=orthogonalEdgeStyle;" edge="1" parent="WIyWlLk6GJQsqaUBKTNV-1">
          <mxGeometry y="20" relative="1" as="geometry">
            <mxPoint as="offset" />
            <mxPoint x="529.5" y="260" as="sourcePoint" />
            <mxPoint x="529.5" y="300" as="targetPoint" />
          </mxGeometry>
        </mxCell>
        <mxCell id="j6U74FCSiYi01_plaiyg-17" value="balance + amount" style="rounded=0;whiteSpace=wrap;html=1;" vertex="1" parent="WIyWlLk6GJQsqaUBKTNV-1">
          <mxGeometry x="640" y="180" width="120" height="60" as="geometry" />
        </mxCell>
        <mxCell id="j6U74FCSiYi01_plaiyg-18" value="Return True" style="rounded=0;whiteSpace=wrap;html=1;" vertex="1" parent="WIyWlLk6GJQsqaUBKTNV-1">
          <mxGeometry x="810" y="180" width="120" height="60" as="geometry" />
        </mxCell>
        <mxCell id="j6U74FCSiYi01_plaiyg-19" value="" style="edgeStyle=orthogonalEdgeStyle;rounded=0;html=1;jettySize=auto;orthogonalLoop=1;fontSize=11;endArrow=block;endFill=0;endSize=8;strokeWidth=1;shadow=0;labelBackgroundColor=none;" edge="1" parent="WIyWlLk6GJQsqaUBKTNV-1">
          <mxGeometry x="-0.208" y="20" relative="1" as="geometry">
            <mxPoint as="offset" />
            <mxPoint x="760" y="209.5" as="sourcePoint" />
            <mxPoint x="810" y="209.5" as="targetPoint" />
          </mxGeometry>
        </mxCell>
        <mxCell id="j6U74FCSiYi01_plaiyg-20" value="Return False" style="rounded=0;whiteSpace=wrap;html=1;" vertex="1" parent="WIyWlLk6GJQsqaUBKTNV-1">
          <mxGeometry x="470" y="300" width="120" height="60" as="geometry" />
        </mxCell>
        <mxCell id="j6U74FCSiYi01_plaiyg-23" value="0&amp;lt;amount&amp;lt;balance?" style="strokeWidth=2;html=1;shape=mxgraph.flowchart.decision;whiteSpace=wrap;" vertex="1" parent="WIyWlLk6GJQsqaUBKTNV-1">
          <mxGeometry x="470" y="410" width="130" height="100" as="geometry" />
        </mxCell>
        <mxCell id="j6U74FCSiYi01_plaiyg-24" value="" style="edgeStyle=orthogonalEdgeStyle;rounded=0;html=1;jettySize=auto;orthogonalLoop=1;fontSize=11;endArrow=block;endFill=0;endSize=8;strokeWidth=1;shadow=0;labelBackgroundColor=none;" edge="1" parent="WIyWlLk6GJQsqaUBKTNV-1">
          <mxGeometry y="10" relative="1" as="geometry">
            <mxPoint as="offset" />
            <mxPoint x="420" y="459.5" as="sourcePoint" />
            <mxPoint x="470" y="459.5" as="targetPoint" />
          </mxGeometry>
        </mxCell>
        <mxCell id="j6U74FCSiYi01_plaiyg-25" value="True" style="edgeStyle=orthogonalEdgeStyle;rounded=0;html=1;jettySize=auto;orthogonalLoop=1;fontSize=11;endArrow=block;endFill=0;endSize=8;strokeWidth=1;shadow=0;labelBackgroundColor=none;" edge="1" parent="WIyWlLk6GJQsqaUBKTNV-1">
          <mxGeometry x="-0.208" y="20" relative="1" as="geometry">
            <mxPoint as="offset" />
            <mxPoint x="600" y="459.5" as="sourcePoint" />
            <mxPoint x="650" y="459.5" as="targetPoint" />
          </mxGeometry>
        </mxCell>
        <mxCell id="j6U74FCSiYi01_plaiyg-26" value="False" style="rounded=0;html=1;jettySize=auto;orthogonalLoop=1;fontSize=11;endArrow=block;endFill=0;endSize=8;strokeWidth=1;shadow=0;labelBackgroundColor=none;edgeStyle=orthogonalEdgeStyle;" edge="1" parent="WIyWlLk6GJQsqaUBKTNV-1">
          <mxGeometry y="20" relative="1" as="geometry">
            <mxPoint as="offset" />
            <mxPoint x="534.5" y="510" as="sourcePoint" />
            <mxPoint x="534.5" y="550" as="targetPoint" />
          </mxGeometry>
        </mxCell>
        <mxCell id="j6U74FCSiYi01_plaiyg-27" value="balance - amount" style="rounded=0;whiteSpace=wrap;html=1;" vertex="1" parent="WIyWlLk6GJQsqaUBKTNV-1">
          <mxGeometry x="650" y="430" width="120" height="60" as="geometry" />
        </mxCell>
        <mxCell id="j6U74FCSiYi01_plaiyg-28" value="Return True" style="rounded=0;whiteSpace=wrap;html=1;" vertex="1" parent="WIyWlLk6GJQsqaUBKTNV-1">
          <mxGeometry x="820" y="430" width="120" height="60" as="geometry" />
        </mxCell>
        <mxCell id="j6U74FCSiYi01_plaiyg-29" value="" style="edgeStyle=orthogonalEdgeStyle;rounded=0;html=1;jettySize=auto;orthogonalLoop=1;fontSize=11;endArrow=block;endFill=0;endSize=8;strokeWidth=1;shadow=0;labelBackgroundColor=none;" edge="1" parent="WIyWlLk6GJQsqaUBKTNV-1">
          <mxGeometry x="-0.208" y="20" relative="1" as="geometry">
            <mxPoint as="offset" />
            <mxPoint x="770" y="459.5" as="sourcePoint" />
            <mxPoint x="820" y="459.5" as="targetPoint" />
          </mxGeometry>
        </mxCell>
        <mxCell id="j6U74FCSiYi01_plaiyg-30" value="Return False" style="rounded=0;whiteSpace=wrap;html=1;" vertex="1" parent="WIyWlLk6GJQsqaUBKTNV-1">
          <mxGeometry x="475" y="550" width="120" height="60" as="geometry" />
        </mxCell>
        <mxCell id="j6U74FCSiYi01_plaiyg-32" value="" style="edgeStyle=orthogonalEdgeStyle;rounded=0;html=1;jettySize=auto;orthogonalLoop=1;fontSize=11;endArrow=block;endFill=0;endSize=8;strokeWidth=1;shadow=0;labelBackgroundColor=none;" edge="1" parent="WIyWlLk6GJQsqaUBKTNV-1">
          <mxGeometry x="-0.208" y="20" relative="1" as="geometry">
            <mxPoint as="offset" />
            <mxPoint x="150" y="731.5" as="sourcePoint" />
            <mxPoint x="200" y="731.5" as="targetPoint" />
          </mxGeometry>
        </mxCell>
        <mxCell id="j6U74FCSiYi01_plaiyg-36" value="&lt;div&gt;Deposit&lt;/div&gt;Begin" style="strokeWidth=2;html=1;shape=mxgraph.flowchart.terminator;whiteSpace=wrap;" vertex="1" parent="WIyWlLk6GJQsqaUBKTNV-1">
          <mxGeometry x="50" y="180" width="100" height="60" as="geometry" />
        </mxCell>
        <mxCell id="j6U74FCSiYi01_plaiyg-37" value="End" style="strokeWidth=2;html=1;shape=mxgraph.flowchart.terminator;whiteSpace=wrap;" vertex="1" parent="WIyWlLk6GJQsqaUBKTNV-1">
          <mxGeometry x="820" y="300" width="100" height="60" as="geometry" />
        </mxCell>
        <mxCell id="j6U74FCSiYi01_plaiyg-38" value="" style="edgeStyle=orthogonalEdgeStyle;rounded=0;html=1;jettySize=auto;orthogonalLoop=1;fontSize=11;endArrow=block;endFill=0;endSize=8;strokeWidth=1;shadow=0;labelBackgroundColor=none;entryX=0;entryY=0.5;entryDx=0;entryDy=0;entryPerimeter=0;" edge="1" parent="WIyWlLk6GJQsqaUBKTNV-1" target="j6U74FCSiYi01_plaiyg-37">
          <mxGeometry y="10" relative="1" as="geometry">
            <mxPoint as="offset" />
            <mxPoint x="590" y="329.5" as="sourcePoint" />
            <mxPoint x="640" y="329.5" as="targetPoint" />
          </mxGeometry>
        </mxCell>
        <mxCell id="j6U74FCSiYi01_plaiyg-39" value="" style="edgeStyle=orthogonalEdgeStyle;rounded=0;html=1;jettySize=auto;orthogonalLoop=1;fontSize=11;endArrow=block;endFill=0;endSize=8;strokeWidth=1;shadow=0;labelBackgroundColor=none;entryX=0.5;entryY=0;entryDx=0;entryDy=0;entryPerimeter=0;exitX=0.5;exitY=1;exitDx=0;exitDy=0;" edge="1" parent="WIyWlLk6GJQsqaUBKTNV-1" source="j6U74FCSiYi01_plaiyg-18" target="j6U74FCSiYi01_plaiyg-37">
          <mxGeometry y="10" relative="1" as="geometry">
            <mxPoint as="offset" />
            <mxPoint x="600" y="339.5" as="sourcePoint" />
            <mxPoint x="830" y="340" as="targetPoint" />
          </mxGeometry>
        </mxCell>
        <mxCell id="j6U74FCSiYi01_plaiyg-40" value="Withdraw&lt;div&gt;Begin&lt;/div&gt;" style="strokeWidth=2;html=1;shape=mxgraph.flowchart.terminator;whiteSpace=wrap;" vertex="1" parent="WIyWlLk6GJQsqaUBKTNV-1">
          <mxGeometry x="50" y="430" width="100" height="60" as="geometry" />
        </mxCell>
        <mxCell id="j6U74FCSiYi01_plaiyg-41" value="End" style="strokeWidth=2;html=1;shape=mxgraph.flowchart.terminator;whiteSpace=wrap;" vertex="1" parent="WIyWlLk6GJQsqaUBKTNV-1">
          <mxGeometry x="825" y="550" width="100" height="60" as="geometry" />
        </mxCell>
        <mxCell id="j6U74FCSiYi01_plaiyg-42" value="" style="edgeStyle=orthogonalEdgeStyle;rounded=0;html=1;jettySize=auto;orthogonalLoop=1;fontSize=11;endArrow=block;endFill=0;endSize=8;strokeWidth=1;shadow=0;labelBackgroundColor=none;entryX=0;entryY=0.5;entryDx=0;entryDy=0;entryPerimeter=0;" edge="1" parent="WIyWlLk6GJQsqaUBKTNV-1" target="j6U74FCSiYi01_plaiyg-41">
          <mxGeometry y="10" relative="1" as="geometry">
            <mxPoint as="offset" />
            <mxPoint x="595" y="579.5" as="sourcePoint" />
            <mxPoint x="645" y="579.5" as="targetPoint" />
          </mxGeometry>
        </mxCell>
        <mxCell id="j6U74FCSiYi01_plaiyg-43" value="" style="edgeStyle=orthogonalEdgeStyle;rounded=0;html=1;jettySize=auto;orthogonalLoop=1;fontSize=11;endArrow=block;endFill=0;endSize=8;strokeWidth=1;shadow=0;labelBackgroundColor=none;entryX=0.5;entryY=0;entryDx=0;entryDy=0;entryPerimeter=0;exitX=0.5;exitY=1;exitDx=0;exitDy=0;" edge="1" parent="WIyWlLk6GJQsqaUBKTNV-1" target="j6U74FCSiYi01_plaiyg-41">
          <mxGeometry y="10" relative="1" as="geometry">
            <mxPoint as="offset" />
            <mxPoint x="875" y="490" as="sourcePoint" />
            <mxPoint x="835" y="590" as="targetPoint" />
          </mxGeometry>
        </mxCell>
        <mxCell id="j6U74FCSiYi01_plaiyg-44" value="Balance&lt;div&gt;Begin&lt;/div&gt;" style="strokeWidth=2;html=1;shape=mxgraph.flowchart.terminator;whiteSpace=wrap;" vertex="1" parent="WIyWlLk6GJQsqaUBKTNV-1">
          <mxGeometry x="50" y="702" width="100" height="60" as="geometry" />
        </mxCell>
        <mxCell id="j6U74FCSiYi01_plaiyg-45" value="End" style="strokeWidth=2;html=1;shape=mxgraph.flowchart.terminator;whiteSpace=wrap;" vertex="1" parent="WIyWlLk6GJQsqaUBKTNV-1">
          <mxGeometry x="640" y="702" width="100" height="60" as="geometry" />
        </mxCell>
        <mxCell id="j6U74FCSiYi01_plaiyg-46" value="" style="edgeStyle=orthogonalEdgeStyle;rounded=0;html=1;jettySize=auto;orthogonalLoop=1;fontSize=11;endArrow=block;endFill=0;endSize=8;strokeWidth=1;shadow=0;labelBackgroundColor=none;" edge="1" parent="WIyWlLk6GJQsqaUBKTNV-1">
          <mxGeometry x="-0.208" y="20" relative="1" as="geometry">
            <mxPoint as="offset" />
            <mxPoint x="420" y="731.5" as="sourcePoint" />
            <mxPoint x="470" y="731.5" as="targetPoint" />
          </mxGeometry>
        </mxCell>
        <mxCell id="j6U74FCSiYi01_plaiyg-48" value="self.account.deposit(amount)" style="rounded=1;whiteSpace=wrap;html=1;absoluteArcSize=1;arcSize=14;strokeWidth=2;" vertex="1" parent="WIyWlLk6GJQsqaUBKTNV-1">
          <mxGeometry x="200" y="185" width="220" height="50" as="geometry" />
        </mxCell>
        <mxCell id="j6U74FCSiYi01_plaiyg-49" value="self.account.get_balance()" style="rounded=1;whiteSpace=wrap;html=1;absoluteArcSize=1;arcSize=14;strokeWidth=2;" vertex="1" parent="WIyWlLk6GJQsqaUBKTNV-1">
          <mxGeometry x="200" y="707" width="220" height="50" as="geometry" />
        </mxCell>
        <mxCell id="j6U74FCSiYi01_plaiyg-50" value="self.account.withdraw(amount)" style="rounded=1;whiteSpace=wrap;html=1;absoluteArcSize=1;arcSize=14;strokeWidth=2;" vertex="1" parent="WIyWlLk6GJQsqaUBKTNV-1">
          <mxGeometry x="200" y="435" width="220" height="50" as="geometry" />
        </mxCell>
        <mxCell id="j6U74FCSiYi01_plaiyg-51" value="Return balance" style="rounded=0;whiteSpace=wrap;html=1;" vertex="1" parent="WIyWlLk6GJQsqaUBKTNV-1">
          <mxGeometry x="470" y="702" width="120" height="60" as="geometry" />
        </mxCell>
        <mxCell id="j6U74FCSiYi01_plaiyg-52" value="" style="edgeStyle=orthogonalEdgeStyle;rounded=0;html=1;jettySize=auto;orthogonalLoop=1;fontSize=11;endArrow=block;endFill=0;endSize=8;strokeWidth=1;shadow=0;labelBackgroundColor=none;" edge="1" parent="WIyWlLk6GJQsqaUBKTNV-1">
          <mxGeometry x="-0.208" y="20" relative="1" as="geometry">
            <mxPoint as="offset" />
            <mxPoint x="590" y="731.5" as="sourcePoint" />
            <mxPoint x="640" y="731.5" as="targetPoint" />
          </mxGeometry>
        </mxCell>
        <mxCell id="j6U74FCSiYi01_plaiyg-53" value="self.bank.create_account(number, name)" style="rounded=1;whiteSpace=wrap;html=1;absoluteArcSize=1;arcSize=14;strokeWidth=2;" vertex="1" parent="WIyWlLk6GJQsqaUBKTNV-1">
          <mxGeometry x="200" y="890" width="270" height="50" as="geometry" />
        </mxCell>
        <mxCell id="j6U74FCSiYi01_plaiyg-54" value="" style="edgeStyle=orthogonalEdgeStyle;rounded=0;html=1;jettySize=auto;orthogonalLoop=1;fontSize=11;endArrow=block;endFill=0;endSize=8;strokeWidth=1;shadow=0;labelBackgroundColor=none;" edge="1" parent="WIyWlLk6GJQsqaUBKTNV-1">
          <mxGeometry x="-0.208" y="20" relative="1" as="geometry">
            <mxPoint as="offset" />
            <mxPoint x="150" y="914.5" as="sourcePoint" />
            <mxPoint x="200" y="914.5" as="targetPoint" />
          </mxGeometry>
        </mxCell>
        <mxCell id="j6U74FCSiYi01_plaiyg-55" value="&lt;div&gt;Create Account&lt;/div&gt;&lt;div&gt;Begin&lt;/div&gt;" style="strokeWidth=2;html=1;shape=mxgraph.flowchart.terminator;whiteSpace=wrap;" vertex="1" parent="WIyWlLk6GJQsqaUBKTNV-1">
          <mxGeometry x="50" y="885" width="100" height="60" as="geometry" />
        </mxCell>
        <mxCell id="j6U74FCSiYi01_plaiyg-56" value="number not in accounts?" style="strokeWidth=2;html=1;shape=mxgraph.flowchart.decision;whiteSpace=wrap;" vertex="1" parent="WIyWlLk6GJQsqaUBKTNV-1">
          <mxGeometry x="520" y="865" width="130" height="100" as="geometry" />
        </mxCell>
        <mxCell id="j6U74FCSiYi01_plaiyg-57" value="True" style="edgeStyle=orthogonalEdgeStyle;rounded=0;html=1;jettySize=auto;orthogonalLoop=1;fontSize=11;endArrow=block;endFill=0;endSize=8;strokeWidth=1;shadow=0;labelBackgroundColor=none;" edge="1" parent="WIyWlLk6GJQsqaUBKTNV-1">
          <mxGeometry x="-0.208" y="20" relative="1" as="geometry">
            <mxPoint as="offset" />
            <mxPoint x="650" y="914.5" as="sourcePoint" />
            <mxPoint x="700" y="914.5" as="targetPoint" />
          </mxGeometry>
        </mxCell>
        <mxCell id="j6U74FCSiYi01_plaiyg-58" value="False" style="rounded=0;html=1;jettySize=auto;orthogonalLoop=1;fontSize=11;endArrow=block;endFill=0;endSize=8;strokeWidth=1;shadow=0;labelBackgroundColor=none;edgeStyle=orthogonalEdgeStyle;" edge="1" parent="WIyWlLk6GJQsqaUBKTNV-1">
          <mxGeometry y="20" relative="1" as="geometry">
            <mxPoint as="offset" />
            <mxPoint x="584.5" y="965" as="sourcePoint" />
            <mxPoint x="584.5" y="1005" as="targetPoint" />
          </mxGeometry>
        </mxCell>
        <mxCell id="j6U74FCSiYi01_plaiyg-59" value="create account" style="rounded=0;whiteSpace=wrap;html=1;" vertex="1" parent="WIyWlLk6GJQsqaUBKTNV-1">
          <mxGeometry x="700" y="885" width="120" height="60" as="geometry" />
        </mxCell>
        <mxCell id="j6U74FCSiYi01_plaiyg-60" value="Return True" style="rounded=0;whiteSpace=wrap;html=1;" vertex="1" parent="WIyWlLk6GJQsqaUBKTNV-1">
          <mxGeometry x="870" y="885" width="120" height="60" as="geometry" />
        </mxCell>
        <mxCell id="j6U74FCSiYi01_plaiyg-61" value="" style="edgeStyle=orthogonalEdgeStyle;rounded=0;html=1;jettySize=auto;orthogonalLoop=1;fontSize=11;endArrow=block;endFill=0;endSize=8;strokeWidth=1;shadow=0;labelBackgroundColor=none;" edge="1" parent="WIyWlLk6GJQsqaUBKTNV-1">
          <mxGeometry x="-0.208" y="20" relative="1" as="geometry">
            <mxPoint as="offset" />
            <mxPoint x="820" y="914.5" as="sourcePoint" />
            <mxPoint x="870" y="914.5" as="targetPoint" />
          </mxGeometry>
        </mxCell>
        <mxCell id="j6U74FCSiYi01_plaiyg-62" value="Return False" style="rounded=0;whiteSpace=wrap;html=1;" vertex="1" parent="WIyWlLk6GJQsqaUBKTNV-1">
          <mxGeometry x="525" y="1005" width="120" height="60" as="geometry" />
        </mxCell>
        <mxCell id="j6U74FCSiYi01_plaiyg-63" value="End" style="strokeWidth=2;html=1;shape=mxgraph.flowchart.terminator;whiteSpace=wrap;" vertex="1" parent="WIyWlLk6GJQsqaUBKTNV-1">
          <mxGeometry x="875" y="1005" width="100" height="60" as="geometry" />
        </mxCell>
        <mxCell id="j6U74FCSiYi01_plaiyg-64" value="" style="edgeStyle=orthogonalEdgeStyle;rounded=0;html=1;jettySize=auto;orthogonalLoop=1;fontSize=11;endArrow=block;endFill=0;endSize=8;strokeWidth=1;shadow=0;labelBackgroundColor=none;entryX=0;entryY=0.5;entryDx=0;entryDy=0;entryPerimeter=0;" edge="1" parent="WIyWlLk6GJQsqaUBKTNV-1" target="j6U74FCSiYi01_plaiyg-63">
          <mxGeometry y="10" relative="1" as="geometry">
            <mxPoint as="offset" />
            <mxPoint x="645" y="1034.5" as="sourcePoint" />
            <mxPoint x="695" y="1034.5" as="targetPoint" />
          </mxGeometry>
        </mxCell>
        <mxCell id="j6U74FCSiYi01_plaiyg-65" value="" style="edgeStyle=orthogonalEdgeStyle;rounded=0;html=1;jettySize=auto;orthogonalLoop=1;fontSize=11;endArrow=block;endFill=0;endSize=8;strokeWidth=1;shadow=0;labelBackgroundColor=none;entryX=0.5;entryY=0;entryDx=0;entryDy=0;entryPerimeter=0;exitX=0.5;exitY=1;exitDx=0;exitDy=0;" edge="1" parent="WIyWlLk6GJQsqaUBKTNV-1" target="j6U74FCSiYi01_plaiyg-63">
          <mxGeometry y="10" relative="1" as="geometry">
            <mxPoint as="offset" />
            <mxPoint x="925" y="945" as="sourcePoint" />
            <mxPoint x="885" y="1045" as="targetPoint" />
          </mxGeometry>
        </mxCell>
        <mxCell id="j6U74FCSiYi01_plaiyg-66" value="" style="edgeStyle=orthogonalEdgeStyle;rounded=0;html=1;jettySize=auto;orthogonalLoop=1;fontSize=11;endArrow=block;endFill=0;endSize=8;strokeWidth=1;shadow=0;labelBackgroundColor=none;" edge="1" parent="WIyWlLk6GJQsqaUBKTNV-1">
          <mxGeometry x="-0.208" y="20" relative="1" as="geometry">
            <mxPoint as="offset" />
            <mxPoint x="470" y="914.5" as="sourcePoint" />
            <mxPoint x="520" y="914.5" as="targetPoint" />
          </mxGeometry>
        </mxCell>
      </root>
    </mxGraphModel>
  </diagram>
</mxfile>
